<svg width="36" height="36" viewBox="0 0 36 36" fill="none" xmlns="http://www.w3.org/2000/svg">
<g clip-path="url(#clip0_2014_147)">
<path d="M0 19.5593H9.62897V29.5167L14.779 24.8115V14.5258H4.69806L0 19.5593Z" fill="#901d4f"/>
<path d="M2.57507 13.4179H16.0118V32.5258L23.956 25.7143V7.82371H8.28671L2.57507 13.4179Z" fill="#901d4f"/>
<path d="M6.83484 6.48328H25.0792V35.9863L35.4889 24.0319V0H13.7655L6.83484 6.48328Z" fill="#901d4f"/>
<path d="M9.62903 19.5593L14.7791 14.5258V24.8115L9.62903 19.5593Z" fill="#901d4f"/>
<path d="M9.62903 19.5593L14.7791 14.5258H4.69812L9.62903 19.5593Z" fill="#901d4f"/>
<path d="M16.0117 13.4179L23.956 7.82371V25.7143L16.0117 13.4179Z" fill="#901d4f"/>

<path d="M25.0791 6.48328L35.4888 0V24.0319L25.0791 6.48328Z" fill="#901d4f"/>
</g>
<defs>
<clipPath id="clip0_2014_147">
<rect width="36" height="36" fill="white"/>
</clipPath>
</defs>
</svg>
